<?xml version="1.0" encoding="iso-8859-1"?>
<!-- Uploaded to: SVG Repo, www.svgrepo.com, Generator: SVG Repo Mixer Tools -->
<svg fill="#000000" height="800px" width="800px" version="1.1" id="Layer_1" xmlns="http://www.w3.org/2000/svg" xmlns:xlink="http://www.w3.org/1999/xlink" 
	 viewBox="0 0 511.999 511.999" xml:space="preserve">
<g>
	<g>
		<g>
			<path d="M105.444,109.515c-33.847,33.848-33.847,88.922,0,122.769c33.845,33.847,88.921,33.85,122.769,0
				c33.848-33.847,33.848-88.921,0-122.769C194.364,75.67,139.292,75.67,105.444,109.515z M197.059,201.13
				c-16.67,16.67-43.792,16.669-60.461,0c-16.67-16.669-16.67-43.792-0.001-60.461c16.667-16.667,43.792-16.67,60.462,0
				C213.728,157.338,213.728,184.462,197.059,201.13z"/>
			<path d="M391.061,307.905c-8.597-8.599-22.553-8.602-31.153,0l-12.46,12.46l-48.123-48.123
				c49.831-64.872,45.779-158.946-14.555-219.282c-65.184-65.184-170.688-65.191-235.879,0c-65.184,65.184-65.193,170.689,0,235.879
				c59.779,59.779,153.935,64.585,219.272,14.546l48.133,48.133l-12.461,12.461c-8.603,8.603-8.603,22.55,0,31.153l94.761,94.761
				c24.047,24.048,63.179,24.05,87.229,0c24.048-24.048,24.048-63.179,0-87.227L391.061,307.905z M253.615,257.686
				c-47.966,47.966-125.602,47.97-173.572,0c-47.966-47.966-47.97-125.602,0-173.572c47.966-47.966,125.602-47.97,173.572,0
				C301.579,132.077,301.587,209.716,253.615,257.686z M454.67,458.741c-6.873,6.872-18.049,6.869-24.922,0l-79.185-79.185
				l24.921-24.921l79.187,79.185C461.54,440.691,461.54,451.87,454.67,458.741z"/>
			<path d="M338.71,48.166h151.26c12.166,0,22.029-9.863,22.029-22.029c0-12.166-9.863-22.029-22.029-22.029H338.71
				c-12.166,0-22.029,9.863-22.029,22.029C316.681,38.303,326.544,48.166,338.71,48.166z"/>
			<path d="M489.97,100.177H385.705c-12.166,0-22.029,9.863-22.029,22.029c0,12.166,9.863,22.029,22.029,22.029H489.97
				c12.166,0,22.029-9.863,22.029-22.029C511.999,110.041,502.135,100.177,489.97,100.177z"/>
			<path d="M489.97,196.246H371.019c-12.166,0-22.029,9.863-22.029,22.029c0,12.166,9.863,22.029,22.029,22.029H489.97
				c12.166,0,22.029-9.863,22.029-22.029C511.999,206.109,502.135,196.246,489.97,196.246z"/>
		</g>
	</g>
</g>
</svg>